<?xml version="1.0" encoding="UTF-8"?>
<svg version="1.1" xmlns="http://www.w3.org/2000/svg" width="1000" height="1000">
<path d="M0 0 C330 0 660 0 1000 0 C1000 330 1000 660 1000 1000 C670 1000 340 1000 0 1000 C0 670 0 340 0 0 Z " fill="#000000" transform="translate(0,0)"/>
<path d="M0 0 C7.45310537 4.18680421 13.41554343 10.83550677 19.35546875 16.88671875 C21.17509568 18.67303443 23.06703917 20.33727835 25 22 C27.80826347 24.41867779 30.46220593 26.92149683 33.0625 29.5625 C35.64259215 32.18290609 38.27353607 34.66573412 41.0625 37.0625 C44.57391648 40.08012353 47.81557402 43.29609081 51.0625 46.59375 C53.00141002 48.50236455 54.99949551 50.28960552 57.0625 52.0625 C59.85146393 54.45926588 62.48240785 56.94209391 65.0625 59.5625 C67.62240134 62.16232183 70.2302954 64.62518398 73 67 C76.81074063 70.27380653 80.31328165 73.79613971 83.83984375 77.37109375 C86.4895144 79.98351068 89.27422803 82.39552621 92.09765625 84.81640625 C94.87811832 87.28731389 97.45368218 89.9441694 100.0625 92.59375 C102.00141002 94.50236455 103.99949551 96.28960552 106.0625 98.0625 C108.85146393 100.45926588 111.48240785 102.94209391 114.0625 105.5625 C116.62240134 108.16232183 119.2302954 110.62518398 122 113 C125.81074063 116.27380653 129.31328165 119.79613971 132.83984375 123.37109375 C135.4895144 125.98351068 138.27422803 128.39552621 141.09765625 130.81640625 C143.87811832 133.28731389 146.45368218 135.9441694 149.0625 138.59375 C151.00141002 140.50236455 152.99949551 142.28960552 155.0625 144.0625 C158.57391648 147.08012353 161.81557402 150.29609081 165.0625 153.59375 C167.00141002 155.50236455 168.99949551 157.28960552 171.0625 159.0625 C173.85146393 161.45926588 176.48240785 163.94209391 179.0625 166.5625 C181.62240134 169.16232183 184.2302954 171.62518398 187 174 C190.81074063 177.27380653 194.31328165 180.79613971 197.83984375 184.37109375 C200.4895144 186.98351068 203.27422803 189.39552621 206.09765625 191.81640625 C208.87811832 194.28731389 211.45368218 196.9441694 214.0625 199.59375 C216.00141002 201.50236455 217.99949551 203.28960552 220.0625 205.0625 C223.57130387 208.07787833 226.81266477 211.28811005 230.05078125 214.58984375 C232.0426213 216.54300729 234.11315797 218.33293924 236.25 220.125 C244.58358769 227.45592724 244.58358769 227.45592724 245.50390625 233.42578125 C245.79893096 241.06787281 244.54724102 245.65429678 239.51953125 251.29296875 C235.92625801 255.01780348 232.01605258 258.37128997 228.09765625 261.74609375 C226.00391459 263.61478832 224.03123103 265.56294735 222.0625 267.5625 C219.50259866 270.16232183 216.8947046 272.62518398 214.125 275 C211.13448284 277.56915271 208.33133316 280.25567256 205.5625 283.0625 C202.18008601 286.4913279 198.68179558 289.68298518 195.02734375 292.81640625 C192.24688168 295.28731389 189.67131782 297.9441694 187.0625 300.59375 C184.49944772 303.11675459 181.78904176 305.43812817 179.0625 307.78125 C176.97912922 309.6367521 175.01968793 311.57473101 173.0625 313.5625 C169.86220478 316.81279983 166.52025424 319.80974245 163.0625 322.78125 C160.97912922 324.6367521 159.01968793 326.57473101 157.0625 328.5625 C154.50259866 331.16232183 151.8947046 333.62518398 149.125 336 C146.13448284 338.56915271 143.33133316 341.25567256 140.5625 344.0625 C137.18008601 347.4913279 133.68179558 350.68298518 130.02734375 353.81640625 C127.24688168 356.28731389 124.67131782 358.9441694 122.0625 361.59375 C119.49944772 364.11675459 116.78904176 366.43812817 114.0625 368.78125 C111.97912922 370.6367521 110.01968793 372.57473101 108.0625 374.5625 C104.86220478 377.81279983 101.52025424 380.80974245 98.0625 383.78125 C95.97912922 385.6367521 94.01968793 387.57473101 92.0625 389.5625 C89.50259866 392.16232183 86.8947046 394.62518398 84.125 397 C81.13448284 399.56915271 78.33133316 402.25567256 75.5625 405.0625 C72.18008601 408.4913279 68.68179558 411.68298518 65.02734375 414.81640625 C62.24688168 417.28731389 59.67131782 419.9441694 57.0625 422.59375 C54.49944772 425.11675459 51.78904176 427.43812817 49.0625 429.78125 C46.97912922 431.6367521 45.01968793 433.57473101 43.0625 435.5625 C39.86220478 438.81279983 36.52025424 441.80974245 33.0625 444.78125 C30.97912922 446.6367521 29.01968793 448.57473101 27.0625 450.5625 C23.86527299 453.80968368 20.52915364 456.80577914 17.0703125 459.76953125 C14.92993675 461.68087847 12.93761057 463.69285206 10.9375 465.75 C5.4618987 471.28989407 -0.20078536 475.45080624 -8.125 476.0625 C-18.08612679 475.74967122 -24.87737893 467.98270831 -31.33984375 461.234375 C-33.52711609 458.98460916 -35.74075967 456.9093029 -38.125 454.875 C-41.58163029 451.92524828 -44.75453848 448.76390926 -47.94140625 445.52734375 C-49.85857177 443.64019256 -51.83325322 441.87564625 -53.875 440.125 C-57.68574063 436.85119347 -61.18828165 433.32886029 -64.71484375 429.75390625 C-67.3645144 427.14148932 -70.14922803 424.72947379 -72.97265625 422.30859375 C-75.75311832 419.83768611 -78.32868218 417.1808306 -80.9375 414.53125 C-82.87641002 412.62263545 -84.87449551 410.83539448 -86.9375 409.0625 C-89.72646393 406.66573412 -92.35740785 404.18290609 -94.9375 401.5625 C-97.49740134 398.96267817 -100.1052954 396.49981602 -102.875 394.125 C-106.68574063 390.85119347 -110.18828165 387.32886029 -113.71484375 383.75390625 C-116.35465567 381.15120943 -119.12809699 378.74734543 -121.94140625 376.3359375 C-125.42917866 373.23721211 -128.67894373 369.89905363 -131.9375 366.5625 C-135.18957092 367.97988489 -137.25111067 369.68776412 -139.6875 372.25 C-142.34765854 374.98405183 -145.03999898 377.58137216 -147.9375 380.0625 C-150.72646393 382.45926588 -153.35740785 384.94209391 -155.9375 387.5625 C-159.13779522 390.81279983 -162.47974576 393.80974245 -165.9375 396.78125 C-168.02087078 398.6367521 -169.98031207 400.57473101 -171.9375 402.5625 C-174.49740134 405.16232183 -177.1052954 407.62518398 -179.875 410 C-182.86551716 412.56915271 -185.66866684 415.25567256 -188.4375 418.0625 C-191.81991399 421.4913279 -195.31820442 424.68298518 -198.97265625 427.81640625 C-201.75311832 430.28731389 -204.32868218 432.9441694 -206.9375 435.59375 C-209.50055228 438.11675459 -212.21095824 440.43812817 -214.9375 442.78125 C-217.02087078 444.6367521 -218.98031207 446.57473101 -220.9375 448.5625 C-223.49740134 451.16232183 -226.1052954 453.62518398 -228.875 456 C-231.86551716 458.56915271 -234.66866684 461.25567256 -237.4375 464.0625 C-240.80520561 467.47057195 -244.25756826 470.69221527 -247.90234375 473.80078125 C-249.35779483 475.06068228 -250.78468045 476.35388694 -252.19140625 477.66796875 C-257.89239114 482.96380751 -261.95008858 486.11945429 -269.875 487 C-278.56560561 486.56630375 -284.34566651 480.79144072 -290.35449219 475.06884766 C-292.14686361 473.36327522 -293.95178223 471.67156982 -295.7578125 469.98046875 C-299.41146351 466.55511739 -303.05462806 463.11881156 -306.6953125 459.6796875 C-310.29311292 456.28246132 -313.89648038 452.89115751 -317.5 449.5 C-318.20253906 448.83871094 -318.90507812 448.17742187 -319.62890625 447.49609375 C-326.39514136 441.12860546 -333.17328983 434.77386625 -339.95361328 428.42138672 C-343.949926 424.67687219 -347.94479269 420.93081494 -351.93994141 417.18505859 C-355.26027591 414.07209311 -358.58093792 410.95947867 -361.90234375 407.84765625 C-369.47036138 400.75636414 -377.02906751 393.65532759 -384.57958984 386.54541016 C-392.02125193 379.53939076 -399.4787157 372.55028065 -406.9375 365.5625 C-415.82778524 357.23361412 -424.71054227 348.8969113 -433.57958984 340.54541016 C-440.36142953 334.16058647 -447.15632747 327.78975827 -453.95361328 321.42138672 C-457.949926 317.67687219 -461.94479269 313.93081494 -465.93994141 310.18505859 C-469.26027591 307.07209311 -472.58093792 303.95947867 -475.90234375 300.84765625 C-481.33770498 295.75463786 -486.77260031 290.66117775 -492.1953125 285.5546875 C-493.2615686 284.55078979 -493.2615686 284.55078979 -494.34936523 283.52661133 C-495.77437523 282.18377923 -497.19837954 280.83987902 -498.62133789 279.49487305 C-502.13166478 276.18121223 -505.66097506 272.89369139 -509.23828125 269.65234375 C-509.92398193 269.02658447 -510.60968262 268.4008252 -511.31616211 267.75610352 C-512.60585477 266.58123246 -513.90184658 265.41322251 -515.20532227 264.25366211 C-519.58832976 260.24611458 -522.49266406 256.64028382 -523.37109375 250.5625 C-523.38214735 242.07333137 -521.5365224 238.20155874 -515.6875 232.125 C-512.55658097 229.0808655 -509.28046515 226.22782837 -505.97265625 223.37890625 C-503.87891459 221.51021168 -501.90623103 219.56205265 -499.9375 217.5625 C-497.37759866 214.96267817 -494.7697046 212.49981602 -492 210.125 C-489.00948284 207.55584729 -486.20633316 204.86932744 -483.4375 202.0625 C-480.05508601 198.6336721 -476.55679558 195.44201482 -472.90234375 192.30859375 C-470.12188168 189.83768611 -467.54631782 187.1808306 -464.9375 184.53125 C-462.37444772 182.00824541 -459.66404176 179.68687183 -456.9375 177.34375 C-454.85412922 175.4882479 -452.89468793 173.55026899 -450.9375 171.5625 C-447.73720478 168.31220017 -444.39525424 165.31525755 -440.9375 162.34375 C-438.85412922 160.4882479 -436.89468793 158.55026899 -434.9375 156.5625 C-432.37759866 153.96267817 -429.7697046 151.49981602 -427 149.125 C-424.00948284 146.55584729 -421.20633316 143.86932744 -418.4375 141.0625 C-415.05508601 137.6336721 -411.55679558 134.44201482 -407.90234375 131.30859375 C-405.12188168 128.83768611 -402.54631782 126.1808306 -399.9375 123.53125 C-397.37444772 121.00824541 -394.66404176 118.68687183 -391.9375 116.34375 C-389.85412922 114.4882479 -387.89468793 112.55026899 -385.9375 110.5625 C-382.73720478 107.31220017 -379.39525424 104.31525755 -375.9375 101.34375 C-373.85412922 99.4882479 -371.89468793 97.55026899 -369.9375 95.5625 C-367.37759866 92.96267817 -364.7697046 90.49981602 -362 88.125 C-359.00948284 85.55584729 -356.20633316 82.86932744 -353.4375 80.0625 C-350.05508601 76.6336721 -346.55679558 73.44201482 -342.90234375 70.30859375 C-340.12188168 67.83768611 -337.54631782 65.1808306 -334.9375 62.53125 C-332.37444772 60.00824541 -329.66404176 57.68687183 -326.9375 55.34375 C-324.85412922 53.4882479 -322.89468793 51.55026899 -320.9375 49.5625 C-317.73720478 46.31220017 -314.39525424 43.31525755 -310.9375 40.34375 C-308.85412922 38.4882479 -306.89468793 36.55026899 -304.9375 34.5625 C-301.73898838 31.31401164 -298.40114583 28.31705357 -294.94140625 25.3515625 C-292.82393165 23.46110759 -290.85311788 21.47278892 -288.875 19.4375 C-283.4962886 13.9846725 -278.30935294 9.54527873 -270.375 9.125 C-261.32238652 9.28243676 -255.40068538 14.82149481 -249.3125 21 C-248.38376703 21.96325596 -247.45665124 22.92807405 -246.53125 23.89453125 C-244.36480697 26.12296587 -242.17618723 28.17555194 -239.8125 30.1875 C-236.05724213 33.39096488 -232.62498 36.85872525 -229.16015625 40.37109375 C-226.5104856 42.98351068 -223.72577197 45.39552621 -220.90234375 47.81640625 C-218.12188168 50.28731389 -215.54631782 52.9441694 -212.9375 55.59375 C-210.99858998 57.50236455 -209.00050449 59.28960552 -206.9375 61.0625 C-203.42608352 64.08012353 -200.18442598 67.29609081 -196.9375 70.59375 C-194.99858998 72.50236455 -193.00050449 74.28960552 -190.9375 76.0625 C-188.14853607 78.45926588 -185.51759215 80.94209391 -182.9375 83.5625 C-180.37759866 86.16232183 -177.7697046 88.62518398 -175 91 C-171.18925937 94.27380653 -167.68671835 97.79613971 -164.16015625 101.37109375 C-161.52034433 103.97379057 -158.74690301 106.37765457 -155.93359375 108.7890625 C-152.44582134 111.88778789 -149.19605627 115.22594637 -145.9375 118.5625 C-142.68542908 117.14511511 -140.62388933 115.43723588 -138.1875 112.875 C-135.52734146 110.14094817 -132.83500102 107.54362784 -129.9375 105.0625 C-127.14853607 102.66573412 -124.51759215 100.18290609 -121.9375 97.5625 C-119.37759866 94.96267817 -116.7697046 92.49981602 -114 90.125 C-111.00948284 87.55584729 -108.20633316 84.86932744 -105.4375 82.0625 C-102.05508601 78.6336721 -98.55679558 75.44201482 -94.90234375 72.30859375 C-92.12188168 69.83768611 -89.54631782 67.1808306 -86.9375 64.53125 C-84.37444772 62.00824541 -81.66404176 59.68687183 -78.9375 57.34375 C-76.85412922 55.4882479 -74.89468793 53.55026899 -72.9375 51.5625 C-69.73720478 48.31220017 -66.39525424 45.31525755 -62.9375 42.34375 C-60.85412922 40.4882479 -58.89468793 38.55026899 -56.9375 36.5625 C-54.37759866 33.96267817 -51.7697046 31.49981602 -49 29.125 C-46.00948284 26.55584729 -43.20633316 23.86932744 -40.4375 21.0625 C-37.07056525 17.65520815 -33.61736737 14.43558386 -29.9765625 11.32421875 C-28.51258434 10.05936405 -27.07239334 8.76677903 -25.6484375 7.45703125 C-17.94571933 0.38547226 -10.48725075 -4.6186276 0 0 Z " fill="#FEFEFE" transform="translate(638.9375,257.4375)"/>
<path d="M0 0 C6.23148427 3.46414781 11.02999562 8.27815495 15.9140625 13.37890625 C18.08050553 15.60734087 20.26912527 17.65992694 22.6328125 19.671875 C26.38807037 22.87533988 29.8203325 26.34310025 33.28515625 29.85546875 C35.9348269 32.46788568 38.71954053 34.87990121 41.54296875 37.30078125 C44.32343082 39.77168889 46.89899468 42.4285444 49.5078125 45.078125 C51.44672252 46.98673955 53.44480801 48.77398052 55.5078125 50.546875 C59.01922898 53.56449853 62.26088652 56.78046581 65.5078125 60.078125 C67.44672252 61.98673955 69.44480801 63.77398052 71.5078125 65.546875 C74.29677643 67.94364088 76.92772035 70.42646891 79.5078125 73.046875 C82.06771384 75.64669683 84.6756079 78.10955898 87.4453125 80.484375 C90.43582966 83.05352771 93.23897934 85.74004756 96.0078125 88.546875 C99.35914645 91.94411763 102.82364186 95.10378524 106.4453125 98.20703125 C110.30087734 101.64637034 113.89354117 105.35730635 117.5078125 109.046875 C116.81300781 109.74039063 116.11820312 110.43390625 115.40234375 111.1484375 C113.41363255 113.13644919 111.43320114 115.13233777 109.45703125 117.1328125 C104.22360998 122.41719055 99.00543376 127.62436638 93.33203125 132.44140625 C90.58993064 134.85468966 88.06956422 137.4763459 85.5078125 140.078125 C82.94476022 142.60112959 80.23435426 144.92250317 77.5078125 147.265625 C75.42444172 149.1211271 73.46500043 151.05910601 71.5078125 153.046875 C68.94791116 155.64669683 66.3400171 158.10955898 63.5703125 160.484375 C60.57979534 163.05352771 57.77664566 165.74004756 55.0078125 168.546875 C51.62539851 171.9757029 48.12710808 175.16736018 44.47265625 178.30078125 C41.69219418 180.77168889 39.11663032 183.4285444 36.5078125 186.078125 C33.94476022 188.60112959 31.23435426 190.92250317 28.5078125 193.265625 C25.71818613 195.75013598 23.12911418 198.41463063 20.51171875 201.078125 C18.55724798 202.99830681 16.53467311 204.77554809 14.4453125 206.546875 C6.12005566 213.58413639 6.12005566 213.58413639 1.5078125 223.046875 C1.41130504 232.58502928 4.6918942 237.27725415 11.2578125 243.984375 C14.9207116 247.57745345 18.680401 251.00173986 22.578125 254.3359375 C25.34888832 256.79260619 27.9107415 259.44047477 30.5078125 262.078125 C32.44672252 263.98673955 34.44480801 265.77398052 36.5078125 267.546875 C39.29677643 269.94364088 41.92772035 272.42646891 44.5078125 275.046875 C47.06771384 277.64669683 49.6756079 280.10955898 52.4453125 282.484375 C56.25605313 285.75818153 59.75859415 289.28051471 63.28515625 292.85546875 C65.9348269 295.46788568 68.71954053 297.87990121 71.54296875 300.30078125 C74.32343082 302.77168889 76.89899468 305.4285444 79.5078125 308.078125 C81.44672252 309.98673955 83.44480801 311.77398052 85.5078125 313.546875 C89.01922898 316.56449853 92.26088652 319.78046581 95.5078125 323.078125 C97.44672252 324.98673955 99.44480801 326.77398052 101.5078125 328.546875 C105.01782761 331.56329423 108.25832526 334.77782632 111.50390625 338.07421875 C114.0804178 340.61055078 116.80207551 342.94914757 119.54296875 345.3046875 C122.67144459 348.07864421 125.59361363 351.05071429 128.5078125 354.046875 C125.34710752 361.24625855 118.35318298 366.24225975 112.5078125 371.265625 C110.42444172 373.1211271 108.46500043 375.05910601 106.5078125 377.046875 C103.30751728 380.29717483 99.96556674 383.29411745 96.5078125 386.265625 C94.42444172 388.1211271 92.46500043 390.05910601 90.5078125 392.046875 C87.94791116 394.64669683 85.3400171 397.10955898 82.5703125 399.484375 C79.57979534 402.05352771 76.77664566 404.74004756 74.0078125 407.546875 C70.62539851 410.9757029 67.12710808 414.16736018 63.47265625 417.30078125 C60.69219418 419.77168889 58.11663032 422.4285444 55.5078125 425.078125 C52.94476022 427.60112959 50.23435426 429.92250317 47.5078125 432.265625 C45.42444172 434.1211271 43.46500043 436.05910601 41.5078125 438.046875 C38.94791116 440.64669683 36.3400171 443.10955898 33.5703125 445.484375 C30.57979534 448.05352771 27.77664566 450.74004756 25.0078125 453.546875 C21.64010689 456.95494695 18.18774424 460.17659027 14.54296875 463.28515625 C13.08751767 464.54505728 11.66063205 465.83826194 10.25390625 467.15234375 C4.55292136 472.44818251 0.49522392 475.60382929 -7.4296875 476.484375 C-16.12029311 476.05067875 -21.90035401 470.27581572 -27.90917969 464.55322266 C-29.70155111 462.84765022 -31.50646973 461.15594482 -33.3125 459.46484375 C-36.96615101 456.03949239 -40.60931556 452.60318656 -44.25 449.1640625 C-47.84780042 445.76683632 -51.45116788 442.37553251 -55.0546875 438.984375 C-55.75722656 438.32308594 -56.45976562 437.66179687 -57.18359375 436.98046875 C-63.94982886 430.61298046 -70.72797733 424.25824125 -77.50830078 417.90576172 C-81.5046135 414.16124719 -85.49948019 410.41518994 -89.49462891 406.66943359 C-92.81496341 403.55646811 -96.13562542 400.44385367 -99.45703125 397.33203125 C-107.02504888 390.24073914 -114.58375501 383.13970259 -122.13427734 376.02978516 C-129.57593943 369.02376576 -137.0334032 362.03465565 -144.4921875 355.046875 C-153.38247274 346.71798912 -162.26522977 338.3812863 -171.13427734 330.02978516 C-177.91611703 323.64496147 -184.71101497 317.27413327 -191.50830078 310.90576172 C-195.5046135 307.16124719 -199.49948019 303.41518994 -203.49462891 299.66943359 C-206.81496341 296.55646811 -210.13562542 293.44385367 -213.45703125 290.33203125 C-218.89239248 285.23901286 -224.32728781 280.14555275 -229.75 275.0390625 C-230.8162561 274.03516479 -230.8162561 274.03516479 -231.90405273 273.01098633 C-233.32906273 271.66815423 -234.75306704 270.32425402 -236.17602539 268.97924805 C-239.68635228 265.66558723 -243.21566256 262.37806639 -246.79296875 259.13671875 C-247.47866943 258.51095947 -248.16437012 257.8852002 -248.87084961 257.24047852 C-250.16054227 256.06560746 -251.45653408 254.89759751 -252.76000977 253.73803711 C-257.14301726 249.73048958 -260.04735156 246.12465882 -260.92578125 240.046875 C-260.93683485 231.55770637 -259.0912099 227.68593374 -253.2421875 221.609375 C-250.11126847 218.5652405 -246.83515265 215.71220337 -243.52734375 212.86328125 C-241.43360209 210.99458668 -239.46091853 209.04642765 -237.4921875 207.046875 C-234.93228616 204.44705317 -232.3243921 201.98419102 -229.5546875 199.609375 C-226.56417034 197.04022229 -223.76102066 194.35370244 -220.9921875 191.546875 C-217.60977351 188.1180471 -214.11148308 184.92638982 -210.45703125 181.79296875 C-207.67656918 179.32206111 -205.10100532 176.6652056 -202.4921875 174.015625 C-199.92913522 171.49262041 -197.21872926 169.17124683 -194.4921875 166.828125 C-192.40881672 164.9726229 -190.44937543 163.03464399 -188.4921875 161.046875 C-185.29189228 157.79657517 -181.94994174 154.79963255 -178.4921875 151.828125 C-176.40881672 149.9726229 -174.44937543 148.03464399 -172.4921875 146.046875 C-169.93228616 143.44705317 -167.3243921 140.98419102 -164.5546875 138.609375 C-161.56417034 136.04022229 -158.76102066 133.35370244 -155.9921875 130.546875 C-152.60977351 127.1180471 -149.11148308 123.92638982 -145.45703125 120.79296875 C-142.67656918 118.32206111 -140.10100532 115.6652056 -137.4921875 113.015625 C-134.92913522 110.49262041 -132.21872926 108.17124683 -129.4921875 105.828125 C-127.40881672 103.9726229 -125.44937543 102.03464399 -123.4921875 100.046875 C-120.29189228 96.79657517 -116.94994174 93.79963255 -113.4921875 90.828125 C-111.40881672 88.9726229 -109.44937543 87.03464399 -107.4921875 85.046875 C-104.93228616 82.44705317 -102.3243921 79.98419102 -99.5546875 77.609375 C-96.56417034 75.04022229 -93.76102066 72.35370244 -90.9921875 69.546875 C-87.60977351 66.1180471 -84.11148308 62.92638982 -80.45703125 59.79296875 C-77.67656918 57.32206111 -75.10100532 54.6652056 -72.4921875 52.015625 C-69.92913522 49.49262041 -67.21872926 47.17124683 -64.4921875 44.828125 C-62.40881672 42.9726229 -60.44937543 41.03464399 -58.4921875 39.046875 C-55.29189228 35.79657517 -51.94994174 32.79963255 -48.4921875 29.828125 C-46.40881672 27.9726229 -44.44937543 26.03464399 -42.4921875 24.046875 C-39.29367588 20.79838664 -35.95583333 17.80142857 -32.49609375 14.8359375 C-30.37861915 12.94548259 -28.40780538 10.95716392 -26.4296875 8.921875 C-19.04948519 1.43997699 -10.73826535 -4.10679741 0 0 Z " fill="#EEEEEE" transform="translate(376.4921875,267.953125)"/>
</svg>
